<?xml version="1.0" encoding="utf-8"?>
<!-- Generator: Adobe Illustrator 26.0.1, SVG Export Plug-In . SVG Version: 6.00 Build 0)  -->
<svg version="1.1" id="Calque_1" xmlns="http://www.w3.org/2000/svg" xmlns:xlink="http://www.w3.org/1999/xlink" x="0px" y="0px"
	 viewBox="0 0 283.72 196.49" style="enable-background:new 0 0 283.72 196.49;" xml:space="preserve">
<style type="text/css">
	.st0{fill-rule:evenodd;clip-rule:evenodd;fill:#FFFFFF;}
</style>
<g>
	<g>
		<g>
			<path class="st0" d="M129.84,52.44c0-7.1-5.76-12.86-12.86-12.86c-7.1,0-12.86,5.76-12.86,12.86c0,7.1,5.76,12.86,12.86,12.86
				C124.09,65.3,129.84,59.54,129.84,52.44"/>
			<path class="st0" d="M129.84,92.02c0-7.1-5.76-12.86-12.86-12.86c-7.1,0-12.86,5.76-12.86,12.86c0,7.1,5.76,12.86,12.86,12.86
				C124.09,104.88,129.84,99.12,129.84,92.02"/>
			<path class="st0" d="M129.84,12.86c0-7.1-5.76-12.86-12.86-12.86c-7.1,0-12.86,5.76-12.86,12.86c0,7.1,5.76,12.86,12.86,12.86
				C124.09,25.72,129.84,19.97,129.84,12.86"/>
			<polygon class="st0" points="17.03,102.9 5.2,102.9 3.2,68.02 3.2,0 19.03,0 19.03,68.02 17.03,102.9 			"/>
			<polygon class="st0" points="83.02,102.9 71.19,102.9 69.19,68.02 69.19,0 85.02,0 85.02,68.02 83.02,102.9 			"/>
			<polygon class="st0" points="280.21,102.9 268.38,102.9 266.38,64.95 266.38,0 282.21,0 282.21,64.95 280.21,102.9 			"/>
			<polygon class="st0" points="169.09,102.9 153.59,102.9 195.47,0 210.98,0 169.09,102.9 			"/>
			<path class="st0" d="M56.84,52.44c0-7.1-5.76-12.86-12.86-12.86c-7.1,0-12.86,5.76-12.86,12.86c0,7.1,5.76,12.86,12.86,12.86
				C51.09,65.3,56.84,59.54,56.84,52.44"/>
			<path class="st0" d="M254.31,120.44c-13.45,2.07-27.88-8.21-29.33-20.64c-1.52-12.49,8.36-22.3,20.55-20.41
				c9.9,1.54,13.72,12.45,8.84,19.91c-5.36,7.61-15.45,6.04-20.77,4.54c-2.37-0.73-3.66-0.22-2.66,1.9
				c2.28,5.34,11.04,14.02,23.34,13.19L254.31,120.44L254.31,120.44z"/>
		</g>
		<g>
			<path class="st0" d="M4.56,136.91H2.82v20.7h1.74v-9.93h10.26v9.93h1.74v-20.7h-1.74v9.15H4.56V136.91L4.56,136.91z
				 M32.04,157.61h-1.86l7.08-20.7h1.62l7.08,20.7h-1.83l-1.71-5.04h-8.7L32.04,157.61L32.04,157.61z M38.07,139.7l-3.81,11.25h7.62
				L38.07,139.7L38.07,139.7z M66.67,157.79c4.5,0,7.35-2.55,7.35-8.64v-12.24h-1.74v12.24c0,4.8-1.98,7.02-5.61,7.02
				c-3.63,0-5.61-2.22-5.61-7.02v-12.24h-1.74v12.24C59.32,155.24,62.17,157.79,66.67,157.79L66.67,157.79z M87.58,136.91v1.62h6.57
				v19.08h1.74v-19.08h6.57v-1.62H87.58L87.58,136.91z M116.03,136.91v20.7h12.18v-1.62h-10.44v-8.28h9.54v-1.62h-9.54v-7.56h10.44
				v-1.62H116.03L116.03,136.91z M160.95,136.91v20.7h12.18v-1.62h-10.44v-8.28h9.54v-1.62h-9.54v-7.56h10.44v-1.62H160.95
				L160.95,136.91z M165.87,134.9h1.59l2.61-3.87h-2.04L165.87,134.9L165.87,134.9z M201.4,143.18c-0.66-4.53-3.6-6.45-7.29-6.45
				c-4.5,0-7.35,2.61-7.35,9.3v2.46c0,6.69,2.85,9.3,7.35,9.3c3.54,0,6.6-1.86,7.26-6.51h-1.68c-0.66,3.3-2.58,4.89-5.58,4.89
				c-3.51,0-5.61-2.01-5.61-7.68v-2.46c0-5.64,2.07-7.68,5.61-7.68c2.82,0,4.89,1.32,5.58,4.83H201.4L201.4,143.18z M229.42,148.49
				c0,6.54-2.91,9.3-7.35,9.3c-4.44,0-7.35-2.76-7.35-9.3v-2.46c0-6.51,2.91-9.3,7.35-9.3c4.44,0,7.35,2.79,7.35,9.3V148.49
				L229.42,148.49z M216.46,146.03v2.46c0,5.61,2.22,7.68,5.61,7.68c3.39,0,5.61-2.07,5.61-7.68v-2.46c0-5.58-2.22-7.68-5.61-7.68
				C218.68,138.35,216.46,140.45,216.46,146.03L216.46,146.03z M246.08,136.91h-1.74v20.7h12.18v-1.62h-10.44V136.91L246.08,136.91z
				 M269.93,136.91v20.7h12.18v-1.62h-10.44v-8.28h9.54v-1.62h-9.54v-7.56h10.44v-1.62H269.93L269.93,136.91z"/>
			<path class="st0" d="M5.07,195.17H0l8.1-23.3h4.52l8.1,23.3H15.7l-1.42-4.42h-7.8L5.07,195.17L5.07,195.17z M10.37,178.56
				l-2.63,8.21H13L10.37,178.56L10.37,178.56z M27.66,171.87h-4.73v23.3h14.52v-3.98h-9.79V171.87L27.66,171.87z M39.95,171.87h7.8
				c5.5,0,8.51,1.96,8.51,6.11c0,2.4-1.22,4.05-3.07,4.96c2.4,0.88,3.82,2.63,3.82,5.54c0,3.61-2.36,6.69-8.51,6.69h-8.54V171.87
				L39.95,171.87z M44.68,185.07v6.11h3.41c2.84,0,4.19-1.08,4.19-3.07c0-2.19-1.45-3.04-4.63-3.04H44.68L44.68,185.07z
				 M44.68,175.85v5.23h3.14c2.6,0,3.71-1.01,3.71-2.67c0-1.62-0.81-2.57-4.22-2.57H44.68L44.68,175.85z M60.41,171.87v23.3h14.52
				v-3.98h-9.79v-6.08h8.78v-3.98h-8.78v-5.23h9.79v-4.02H60.41L60.41,171.87z M96.1,195.17h-5.2l-4.19-9.15h-3.78v9.15h-4.73v-23.3
				h8.34c5.37,0,8.71,2.4,8.71,7.13c0,3.14-1.45,5.2-3.98,6.25L96.1,195.17L96.1,195.17z M82.94,182.03h3.17
				c2.8,0,4.42-0.61,4.42-3.04s-1.62-3.11-4.42-3.11h-3.17V182.03L82.94,182.03z M96.68,171.87v4.02h6.42v19.28h4.73v-19.28h6.42
				v-4.02H96.68L96.68,171.87z M122.65,192c1.59,2.26,4.05,3.48,7.4,3.48c4.9,0,7.9-2.53,7.9-9.25v-14.35h-4.73v14.35
				c0,4.05-1.22,5.27-3.48,5.27c-1.28,0-2.43-0.64-3.17-1.69L122.65,192L122.65,192z M144.5,195.17h-5.07l8.1-23.3h4.52l8.1,23.3
				h-5.03l-1.42-4.42h-7.8L144.5,195.17L144.5,195.17z M149.8,178.56l-2.63,8.21h5.27L149.8,178.56L149.8,178.56z M178.43,179.1
				c-0.78-5.1-3.92-7.53-8.54-7.53c-5.23,0-8.91,3.11-8.91,10.3v3.31c0,7.13,3.68,10.3,8.91,10.3c4.8,0,7.73-2.3,8.51-7.53h-4.49
				c-0.51,2.36-1.65,3.55-4.02,3.55c-2.74,0-4.19-1.99-4.19-6.31v-3.31c0-4.46,1.45-6.31,4.19-6.31c2.3,0,3.58,1.35,4.02,3.55
				H178.43L178.43,179.1z M198.66,185.17c0,2.26-0.37,4.09-1.05,5.57l3.24,2.77l-2.5,2.97l-3.14-2.67c-1.49,1.11-3.34,1.65-5.5,1.65
				c-5.23,0-8.91-3.17-8.91-10.3v-3.31c0-7.19,3.68-10.3,8.91-10.3c5.27,0,8.95,3.11,8.95,10.3V185.17L198.66,185.17z
				 M185.52,181.86v3.31c0,4.46,1.45,6.31,4.19,6.31c0.81,0,1.55-0.17,2.13-0.54l-2.63-2.26l2.57-3.01l1.99,1.76
				c0.1-0.68,0.17-1.42,0.17-2.26v-3.31c0-4.46-1.49-6.31-4.22-6.31S185.52,177.41,185.52,181.86L185.52,181.86z M215.95,171.87
				v13.88c0,3.98-1.32,5.74-4.22,5.74c-2.9,0-4.22-1.76-4.22-5.74v-13.88h-4.73v13.88c0,6.85,3.78,9.73,8.95,9.73
				c5.17,0,8.95-2.87,8.95-9.76v-13.85H215.95L215.95,171.87z M227.8,195.17h-5.07l8.1-23.3h4.52l8.1,23.3h-5.03l-1.42-4.42h-7.8
				L227.8,195.17L227.8,195.17z M233.1,178.56l-2.63,8.21h5.27L233.1,178.56L233.1,178.56z M263.56,195.17h-5.2l-4.19-9.15h-3.78
				v9.15h-4.73v-23.3h8.34c5.37,0,8.71,2.4,8.71,7.13c0,3.14-1.45,5.2-3.98,6.25L263.56,195.17L263.56,195.17z M250.39,182.03h3.17
				c2.8,0,4.42-0.61,4.42-3.04s-1.62-3.11-4.42-3.11h-3.17V182.03L250.39,182.03z M274.77,195.17h-8.27v-23.3h8.27
				c5.27,0,8.95,2.7,8.95,10.13v3.04C283.72,192.43,280.04,195.17,274.77,195.17L274.77,195.17z M274.77,191.18
				c3.14,0,4.22-2.13,4.22-6.15V182c0-4.02-1.08-6.11-4.22-6.11h-3.55v15.3H274.77L274.77,191.18z"/>
		</g>
	</g>
</g>
</svg>
